<?xml version="1.0" encoding="UTF-8" standalone="no"?>
<!-- Created with Inkscape (http://www.inkscape.org/) -->

<svg
   width="675.80298"
   height="675.80298"
   viewBox="0 0 675.80298 675.80298"
   version="1.1"
   id="svg1"
   xml:space="preserve"
   sodipodi:docname="logotext_main.svg"
   inkscape:version="1.4.2 (ebf0e940d0, 2025-05-08)"
   inkscape:export-filename="logotext_main.png"
   inkscape:export-xdpi="145.46251"
   inkscape:export-ydpi="145.46251"
   xmlns:inkscape="http://www.inkscape.org/namespaces/inkscape"
   xmlns:sodipodi="http://sodipodi.sourceforge.net/DTD/sodipodi-0.dtd"
   xmlns="http://www.w3.org/2000/svg"
   xmlns:svg="http://www.w3.org/2000/svg"><sodipodi:namedview
     id="namedview1"
     pagecolor="#000000"
     bordercolor="#000000"
     borderopacity="0.25"
     inkscape:showpageshadow="2"
     inkscape:pageopacity="0.0"
     inkscape:pagecheckerboard="true"
     inkscape:deskcolor="#808080"
     inkscape:document-units="mm"
     inkscape:zoom="0.43840757"
     inkscape:cx="66.148493"
     inkscape:cy="-3.4214738"
     inkscape:window-width="1536"
     inkscape:window-height="932"
     inkscape:window-x="0"
     inkscape:window-y="0"
     inkscape:window-maximized="1"
     inkscape:current-layer="layer3" /><defs
     id="defs1"><rect
       x="4.9447684"
       y="6.5930247"
       width="825.77631"
       height="271.96225"
       id="rect1" /></defs><g
     inkscape:groupmode="layer"
     id="layer3"
     inkscape:label="Layer 1"
     transform="translate(-66.869881,-1.9702616)"><path
       d="m 137.8912,302.15444 v 11.09333 h -25.51466 v 14.50666 h 19.54132 v 10.66666 h -19.54132 v 14.80533 h 25.51466 v 11.09332 H 97.869881 v -62.1653 z m 23.80803,17.15199 q 2.816,0 5.29067,0.55467 2.51733,0.55466 4.65066,1.57866 h 13.35466 v 4.82133 q 0,1.10934 -0.64,1.74934 -0.59733,0.64 -2.09066,0.98133 l -3.24267,0.72533 q 0.59734,1.92 0.59734,3.968 0,3.328 -1.408,5.97333 -1.36534,2.64533 -3.79734,4.52267 -2.38933,1.83466 -5.67466,2.85866 -3.28533,0.98133 -7.04,0.98133 -2.09066,0 -3.92533,-0.256 -1.45067,0.85334 -1.45067,1.96267 0,1.10933 1.152,1.62133 1.19467,0.46934 3.11467,0.68267 1.92,0.17067 4.39466,0.256 2.47467,0.0427 5.03467,0.29867 2.56,0.21333 5.03466,0.768 2.47467,0.55466 4.39467,1.79199 1.92,1.23734 3.072,3.328 1.19466,2.048 1.19466,5.248 0,2.98667 -1.45066,5.84533 -1.45067,2.85867 -4.26667,5.07733 -2.816,2.21867 -6.91199,3.54133 -4.096,1.36533 -9.38667,1.36533 -5.20533,0 -9.00266,-0.98133 -3.75467,-0.98133 -6.272,-2.60266 -2.47466,-1.57867 -3.66933,-3.66933 -1.19467,-2.09067 -1.19467,-4.352 0,-2.944 1.792,-4.94933 1.792,-2.048 4.90667,-3.2 -1.49333,-0.98133 -2.38933,-2.51733 -0.896,-1.536 -0.896,-3.88267 0,-0.98133 0.34133,-2.048 0.34133,-1.10933 1.06667,-2.13333 0.72533,-1.024 1.83466,-1.96267 1.10933,-0.93866 2.64533,-1.664 -3.45599,-1.83466 -5.46133,-4.86399 -1.96266,-3.02934 -1.96266,-7.04 0,-3.328 1.408,-5.97333 1.408,-2.688 3.83999,-4.52267 2.47467,-1.87733 5.80267,-2.85866 3.328,-1.024 7.21066,-1.024 z m 9.81333,46.63465 q 0,-1.06667 -0.68266,-1.70667 -0.64,-0.64 -1.792,-1.024 -1.10934,-0.384 -2.64534,-0.55467 -1.49333,-0.17066 -3.24266,-0.256 -1.74933,-0.0853 -3.62667,-0.128 -1.87733,-0.0853 -3.712,-0.29866 -1.23733,0.85333 -2.04799,1.92 -0.768,1.024 -0.768,2.34666 0,0.93867 0.384,1.70667 0.42666,0.768 1.45066,1.32267 1.024,0.55466 2.73067,0.85333 1.74933,0.34133 4.39466,0.34133 2.85867,0 4.69333,-0.34133 1.83467,-0.34134 2.90134,-0.93867 1.10933,-0.59733 1.536,-1.45066 0.42666,-0.81067 0.42666,-1.792 z m -9.81333,-26.06933 q 3.28533,0 4.736,-1.62133 1.49333,-1.664 1.49333,-4.26666 0,-2.688 -1.49333,-4.224 -1.45067,-1.536 -4.736,-1.536 -3.28533,0 -4.77866,1.536 -1.45067,1.536 -1.45067,4.224 0,1.28 0.34133,2.34666 0.384,1.06667 1.152,1.87733 0.768,0.768 1.92,1.23734 1.19467,0.42666 2.816,0.42666 z m 44.62938,-20.56532 q 2.816,0 5.29066,0.55467 2.51733,0.55466 4.65067,1.57866 h 13.35466 v 4.82133 q 0,1.10934 -0.64,1.74934 -0.59733,0.64 -2.09067,0.98133 l -3.24266,0.72533 q 0.59733,1.92 0.59733,3.968 0,3.328 -1.408,5.97333 -1.36533,2.64533 -3.79733,4.52267 -2.38933,1.83466 -5.67466,2.85866 -3.28534,0.98133 -7.04,0.98133 -2.09067,0 -3.92533,-0.256 -1.45067,0.85334 -1.45067,1.96267 0,1.10933 1.152,1.62133 1.19467,0.46934 3.11467,0.68267 1.91999,0.17067 4.39466,0.256 2.47467,0.0427 5.03466,0.29867 2.56,0.21333 5.03467,0.768 2.47466,0.55466 4.39466,1.79199 1.92,1.23734 3.072,3.328 1.19467,2.048 1.19467,5.248 0,2.98667 -1.45067,5.84533 -1.45066,2.85867 -4.26666,5.07733 -2.816,2.21867 -6.912,3.54133 -4.096,1.36533 -9.38666,1.36533 -5.20533,0 -9.00266,-0.98133 -3.75467,-0.98133 -6.272,-2.60266 -2.47467,-1.57867 -3.66933,-3.66933 -1.19467,-2.09067 -1.19467,-4.352 0,-2.944 1.792,-4.94933 1.792,-2.048 4.90666,-3.2 -1.49333,-0.98133 -2.38933,-2.51733 -0.896,-1.536 -0.896,-3.88267 0,-0.98133 0.34133,-2.048 0.34134,-1.10933 1.06667,-2.13333 0.72533,-1.024 1.83467,-1.96267 1.10933,-0.93866 2.64533,-1.664 -3.456,-1.83466 -5.46133,-4.86399 -1.96267,-3.02934 -1.96267,-7.04 0,-3.328 1.408,-5.97333 1.408,-2.688 3.84,-4.52267 2.47467,-1.87733 5.80266,-2.85866 3.328,-1.024 7.21067,-1.024 z m 9.81333,46.63465 q 0,-1.06667 -0.68267,-1.70667 -0.64,-0.64 -1.792,-1.024 -1.10933,-0.384 -2.64533,-0.55467 -1.49333,-0.17066 -3.24267,-0.256 -1.74933,-0.0853 -3.62666,-0.128 -1.87733,-0.0853 -3.712,-0.29866 -1.23733,0.85333 -2.048,1.92 -0.768,1.024 -0.768,2.34666 0,0.93867 0.384,1.70667 0.42667,0.768 1.45067,1.32267 1.024,0.55466 2.73066,0.85333 1.74934,0.34133 4.39467,0.34133 2.85866,0 4.69333,-0.34133 1.83467,-0.34134 2.90133,-0.93867 1.10933,-0.59733 1.536,-1.45066 0.42667,-0.81067 0.42667,-1.792 z m -9.81333,-26.06933 q 3.28533,0 4.736,-1.62133 1.49333,-1.664 1.49333,-4.26666 0,-2.688 -1.49333,-4.224 -1.45067,-1.536 -4.736,-1.536 -3.28533,0 -4.77867,1.536 -1.45066,1.536 -1.45066,4.224 0,1.28 0.34133,2.34666 0.384,1.06667 1.152,1.87733 0.768,0.768 1.92,1.23734 1.19467,0.42666 2.816,0.42666 z m 56.06403,-10.11199 q -0.512,0.81066 -1.10933,1.152 -0.55467,0.34133 -1.45067,0.34133 -0.93866,0 -1.87733,-0.384 -0.93867,-0.42667 -2.048,-0.896 -1.06667,-0.46933 -2.432,-0.85333 -1.36533,-0.42667 -3.11466,-0.42667 -2.51734,0 -3.88267,0.98133 -1.32266,0.93867 -1.32266,2.64534 0,1.23733 0.85333,2.048 0.896,0.81066 2.34666,1.45066 1.45067,0.59734 3.28534,1.152 1.83466,0.55467 3.75466,1.23733 1.92,0.68267 3.75467,1.62134 1.83466,0.896 3.28533,2.26133 1.45066,1.32267 2.304,3.24267 0.896,1.91999 0.896,4.60799 0,3.28534 -1.19467,6.05867 -1.19467,2.77333 -3.584,4.77866 -2.34666,2.00533 -5.84533,3.11467 -3.456,1.10933 -7.97866,1.10933 -2.26133,0 -4.52267,-0.42667 -2.26133,-0.42666 -4.39466,-1.152 -2.09067,-0.72533 -3.88267,-1.70666 -1.792,-1.024 -3.072,-2.176 l 3.072,-4.864 q 0.55467,-0.85333 1.32267,-1.32266 0.768,-0.512 2.00533,-0.512 1.152,0 2.048,0.512 0.93867,0.51199 2.00533,1.10933 1.06667,0.59733 2.47467,1.10933 1.45067,0.512 3.62666,0.512 1.536,0 2.60267,-0.29867 1.06667,-0.34133 1.70667,-0.896 0.64,-0.55466 0.93866,-1.23733 0.29867,-0.68266 0.29867,-1.408 0,-1.32266 -0.896,-2.176 -0.896,-0.85333 -2.34667,-1.45066 -1.45066,-0.64 -3.328,-1.152 -1.83466,-0.55467 -3.75466,-1.23734 -1.92,-0.68266 -3.79733,-1.62133 -1.83467,-0.98133 -3.28533,-2.432 -1.45067,-1.49333 -2.34667,-3.62666 -0.896,-2.13333 -0.896,-5.16267 0,-2.816 1.06667,-5.33333 1.10933,-2.56 3.28533,-4.48 2.176,-1.92 5.46133,-3.02933 3.28533,-1.152 7.68,-1.152 2.38933,0 4.60799,0.42667 2.26134,0.42667 4.224,1.19467 1.96267,0.76799 3.584,1.83466 1.62133,1.024 2.85867,2.26133 z m 50.1761,-28.28799 q 4.13867,0 7.296,1.23733 3.15733,1.19467 5.33333,3.2 2.176,1.96267 3.41333,4.56533 1.23733,2.60267 1.536,5.33333 l -8.53333,1.70667 q -0.21333,0.0427 -0.384,0.0853 -0.128,0 -0.29867,0 -1.79199,0 -2.64533,-1.87733 -0.98133,-2.21867 -2.304,-3.37067 -1.28,-1.152 -3.41333,-1.152 -1.49333,0 -2.60266,0.55467 -1.10934,0.55467 -1.87734,1.45067 -0.72533,0.896 -1.10933,2.09066 -0.384,1.19467 -0.384,2.47467 0,1.10933 0.17067,2.13333 0.21333,1.024 0.64,2.09067 0.46933,1.02399 1.23733,2.13333 0.81067,1.10933 2.048,2.38933 l 15.35999,16.21333 q 1.152,-2.56 1.83467,-5.33333 0.68266,-2.77334 0.98133,-5.76 0.0853,-1.19467 0.768,-1.87733 0.72533,-0.68267 1.87733,-0.68267 h 8.36267 q 0,6.22933 -1.664,11.64799 -1.664,5.376 -4.736,9.856 l 13.05599,13.73866 H 333.4754 q -0.98133,0 -1.74933,-0.0853 -0.768,-0.128 -1.45067,-0.384 -0.64,-0.256 -1.23733,-0.72533 -0.59734,-0.46934 -1.28,-1.19467 l -2.688,-2.816 q -4.05333,2.816 -8.87466,4.352 -4.77867,1.536 -10.19733,1.536 -3.712,0 -7.296,-1.28 -3.54133,-1.28 -6.31466,-3.62666 -2.77334,-2.38934 -4.48,-5.76 -1.70667,-3.37067 -1.70667,-7.552 0,-2.816 0.85334,-5.33333 0.89599,-2.51733 2.47466,-4.65066 1.57867,-2.176 3.75467,-3.92534 2.21866,-1.792 4.82133,-3.11466 -2.00534,-3.11467 -2.90133,-6.10133 -0.896,-2.98667 -0.896,-5.80267 0,-3.328 1.19466,-6.27199 1.23733,-2.98667 3.54133,-5.20534 2.34667,-2.26133 5.71733,-3.58399 3.41334,-1.32267 7.808,-1.32267 z m -12.88533,44.24531 q 0,2.048 0.59734,3.712 0.64,1.664 1.792,2.85867 1.152,1.19466 2.73066,1.87733 1.62133,0.64 3.584,0.64 2.85867,0 5.29066,-0.72533 2.47467,-0.768 4.608,-2.13333 l -14.29333,-15.14666 q -2.34666,1.91999 -3.32799,4.18133 -0.98134,2.26133 -0.98134,4.73599 z m 109.61065,2.51734 q 0.512,0 1.024,0.21333 0.512,0.17067 0.98133,0.64 l 5.71734,6.016 q -3.75467,4.90666 -9.42933,7.42399 -5.632,2.47467 -13.35466,2.47467 -7.08267,0 -12.71467,-2.38933 -5.58933,-2.432 -9.51466,-6.656 -3.88266,-4.26666 -5.97333,-10.06933 -2.09067,-5.84533 -2.09067,-12.67199 0,-6.95467 2.38934,-12.75733 2.38933,-5.84533 6.65599,-10.06933 4.30934,-4.224 10.28267,-6.57066 5.97333,-2.34667 13.18399,-2.34667 3.49867,0 6.57066,0.64 3.11467,0.59733 5.80267,1.70667 2.688,1.06666 4.94933,2.60266 2.26133,1.49333 4.01067,3.328 l -4.864,6.528 q -0.46934,0.59733 -1.10934,1.10933 -0.64,0.46933 -1.79199,0.46933 -0.768,0 -1.45067,-0.34133 -0.68267,-0.34133 -1.45067,-0.81067 -0.768,-0.512 -1.70666,-1.06666 -0.896,-0.59734 -2.176,-1.06667 -1.23733,-0.512 -2.944,-0.85333 -1.664,-0.34133 -3.92533,-0.34133 -3.92533,0 -7.168,1.40799 -3.24266,1.36534 -5.58933,3.968 -2.304,2.56 -3.62667,6.22933 -1.27999,3.66934 -1.27999,8.23467 0,4.77866 1.27999,8.49066 1.32267,3.712 3.54134,6.272 2.26133,2.51733 5.24799,3.84 2.98667,1.32266 6.4,1.32266 1.96267,0 3.584,-0.17066 1.62133,-0.21334 2.98667,-0.68267 1.40799,-0.46933 2.64533,-1.19467 1.28,-0.768 2.56,-1.87733 0.512,-0.42667 1.10933,-0.68267 0.59733,-0.29866 1.23733,-0.29866 z m 14.29329,16.08532 v -63.87197 h 13.22666 v 23.50932 q 2.38933,-2.048 5.16266,-3.28533 2.816,-1.28 6.69867,-1.28 3.62666,0 6.39999,1.28 2.816,1.23733 4.736,3.49867 1.92,2.21866 2.90133,5.33333 0.98134,3.072 0.98134,6.69866 v 28.11732 h -13.22666 v -28.11732 q 0,-3.24266 -1.49334,-5.03466 -1.49333,-1.83467 -4.39466,-1.83467 -2.176,0 -4.096,0.93867 -1.92,0.93866 -3.66933,2.51733 v 31.53065 z m 63.14664,-44.24531 v 44.24531 h -13.22666 v -44.24531 z m 1.536,-12.11733 q 0,1.57867 -0.64,2.98667 -0.64,1.36533 -1.74933,2.432 -1.10933,1.02399 -2.60267,1.66399 -1.45066,0.59734 -3.11466,0.59734 -1.62133,0 -3.02933,-0.59734 -1.408,-0.64 -2.51734,-1.66399 -1.06666,-1.06667 -1.70666,-2.432 -0.59734,-1.408 -0.59734,-2.98667 0,-1.62133 0.59734,-3.02933 0.64,-1.408 1.70666,-2.47467 1.10934,-1.06666 2.51734,-1.664 1.408,-0.59733 3.02933,-0.59733 1.664,0 3.11466,0.59733 1.49334,0.59734 2.60267,1.664 1.10933,1.06667 1.74933,2.47467 0.64,1.408 0.64,3.02933 z m 41.0453,22.61332 q -0.59733,0.72534 -1.152,1.152 -0.55466,0.42667 -1.57866,0.42667 -0.98133,0 -1.792,-0.46933 -0.768,-0.46934 -1.74933,-1.024 -0.98134,-0.59734 -2.304,-1.06667 -1.32267,-0.46933 -3.28533,-0.46933 -2.432,0 -4.224,0.896 -1.74933,0.896 -2.90133,2.56 -1.152,1.664 -1.70667,4.096 -0.55467,2.38933 -0.55467,5.41866 0,6.35733 2.432,9.77066 2.47467,3.41333 6.784,3.41333 2.304,0 3.62666,-0.55466 1.36534,-0.59734 2.304,-1.28 0.93867,-0.72533 1.70667,-1.32267 0.81067,-0.59733 2.00533,-0.59733 1.57867,0 2.38933,1.152 l 3.84,4.736 q -2.048,2.34666 -4.30933,3.84 -2.26133,1.45066 -4.65066,2.30399 -2.34667,0.81067 -4.736,1.10934 -2.38933,0.34133 -4.65067,0.34133 -4.05333,0 -7.76533,-1.536 -3.66933,-1.536 -6.48533,-4.43733 -2.77333,-2.944 -4.43733,-7.21066 -1.62133,-4.26667 -1.62133,-9.728 0,-4.77866 1.408,-8.91733 1.45066,-4.18133 4.224,-7.21066 2.816,-3.072 6.91199,-4.82133 4.13867,-1.74934 9.55733,-1.74934 5.20533,0 9.13067,1.664 3.92533,1.664 7.08266,4.864 z m 22.784,-30.12265 v 35.79732 h 1.96266 q 1.23734,0 1.87734,-0.34133 0.68266,-0.34134 1.27999,-1.23734 l 8.36267,-12.45866 q 0.72533,-1.10933 1.70666,-1.62133 1.024,-0.512 2.56,-0.512 h 12.11733 l -11.43466,15.74399 q -0.81067,1.10934 -1.792,1.96267 -0.93867,0.85333 -2.048,1.536 1.92,1.45066 3.328,3.84 l 12.45866,21.16265 h -11.94666 q -1.49333,0 -2.60267,-0.46933 -1.06666,-0.512 -1.74933,-1.74933 l -8.36266,-15.65866 q -0.59734,-1.06667 -1.23733,-1.36533 -0.64,-0.34134 -1.92,-0.34134 h -2.56 v 19.58399 h -13.22666 v -63.87197 z m 52.30928,18.94399 q 4.39466,0 8.02133,1.36534 3.66933,1.36533 6.27199,3.96799 2.64534,2.60267 4.096,6.4 1.49334,3.75467 1.49334,8.53333 0,1.49333 -0.128,2.432 -0.128,0.93867 -0.46934,1.49333 -0.34133,0.55467 -0.93866,0.768 -0.55467,0.21334 -1.45067,0.21334 H 595.7899 q 0.64,5.54666 3.37067,8.06399 2.73067,2.47467 7.04,2.47467 2.304,0 3.96799,-0.55467 1.664,-0.55467 2.944,-1.23733 1.32267,-0.68267 2.38934,-1.23733 1.10933,-0.55467 2.304,-0.55467 1.57866,0 2.38933,1.152 l 3.84,4.736 q -2.048,2.34666 -4.43734,3.84 -2.34666,1.45066 -4.86399,2.30399 -2.47467,0.81067 -4.992,1.10934 -2.47467,0.34133 -4.736,0.34133 -4.65066,0 -8.74666,-1.49333 -4.05333,-1.536 -7.12533,-4.52267 -3.02934,-2.98666 -4.82133,-7.42399 -1.74934,-4.43734 -1.74934,-10.32533 0,-4.43733 1.49334,-8.40533 1.536,-3.968 4.35199,-6.95467 2.85867,-2.98666 6.86933,-4.73599 4.05334,-1.74934 9.13067,-1.74934 z m 0.256,9.13067 q -3.79733,0 -5.93067,2.17599 -2.13333,2.13334 -2.816,6.18667 h 16.512 q 0,-1.57867 -0.42667,-3.072 -0.384,-1.49333 -1.32267,-2.64533 -0.89599,-1.19467 -2.38933,-1.92 -1.49333,-0.72533 -3.62666,-0.72533 z m 27.22136,35.79731 v -44.24531 h 8.192 q 1.23733,0 2.048,0.55467 0.85333,0.55466 1.19466,1.66399 l 0.768,2.56 q 1.28,-1.19466 2.64534,-2.21866 1.36533,-1.024 2.90133,-1.70667 1.57866,-0.72533 3.37066,-1.10933 1.83467,-0.42667 3.968,-0.42667 3.62667,0 6.4,1.28 2.816,1.23733 4.736,3.49867 1.92,2.21866 2.90133,5.33333 0.98133,3.072 0.98133,6.69866 v 28.11732 h -13.22666 v -28.11732 q 0,-3.24266 -1.49333,-5.03466 -1.49334,-1.83467 -4.39467,-1.83467 -2.176,0 -4.096,0.93867 -1.91999,0.93866 -3.66933,2.51733 v 31.53065 z m 76.54394,-34.55998 q -0.512,0.81066 -1.10933,1.152 -0.55467,0.34133 -1.45067,0.34133 -0.93866,0 -1.87733,-0.384 -0.93866,-0.42667 -2.048,-0.896 -1.06666,-0.46933 -2.432,-0.85333 -1.36533,-0.42667 -3.11466,-0.42667 -2.51733,0 -3.88267,0.98133 -1.32266,0.93867 -1.32266,2.64534 0,1.23733 0.85333,2.048 0.896,0.81066 2.34667,1.45066 1.45066,0.59734 3.28533,1.152 1.83466,0.55467 3.75466,1.23733 1.92,0.68267 3.75467,1.62134 1.83466,0.896 3.28533,2.26133 1.45067,1.32267 2.304,3.24267 0.896,1.91999 0.896,4.60799 0,3.28534 -1.19467,6.05867 -1.19466,2.77333 -3.584,4.77866 -2.34666,2.00533 -5.84533,3.11467 -3.456,1.10933 -7.97866,1.10933 -2.26133,0 -4.52267,-0.42667 -2.26133,-0.42666 -4.39466,-1.152 -2.09067,-0.72533 -3.88267,-1.70666 -1.79199,-1.024 -3.07199,-2.176 l 3.07199,-4.864 q 0.55467,-0.85333 1.32267,-1.32266 0.768,-0.512 2.00533,-0.512 1.152,0 2.048,0.512 0.93867,0.51199 2.00533,1.10933 1.06667,0.59733 2.47467,1.10933 1.45067,0.512 3.62667,0.512 1.536,0 2.60266,-0.29867 1.06667,-0.34133 1.70667,-0.896 0.64,-0.55466 0.93866,-1.23733 0.29867,-0.68266 0.29867,-1.408 0,-1.32266 -0.896,-2.176 -0.896,-0.85333 -2.34667,-1.45066 -1.45066,-0.64 -3.32799,-1.152 -1.83467,-0.55467 -3.75467,-1.23734 -1.92,-0.68266 -3.79733,-1.62133 -1.83467,-0.98133 -3.28533,-2.432 -1.45067,-1.49333 -2.34667,-3.62666 -0.896,-2.13333 -0.896,-5.16267 0,-2.816 1.06667,-5.33333 1.10933,-2.56 3.28533,-4.48 2.176,-1.92 5.46133,-3.02933 3.28533,-1.152 7.68,-1.152 2.38933,0 4.608,0.42667 2.26133,0.42667 4.22399,1.19467 1.96267,0.76799 3.584,1.83466 1.62134,1.024 2.85867,2.26133 z"
       id="text3"
       style="font-weight:900;font-size:85.3333px;font-family:Lato;-inkscape-font-specification:'Lato, Heavy';fill:#ffffff;stroke:#000000;stroke-width:12;stroke-linejoin:round;paint-order:stroke fill markers"
       inkscape:label="Text"
       aria-label="Eggs &amp; Chickens" /></g></svg>
